<svg xmlns="http://www.w3.org/2000/svg" viewBox="0 0 746.34 131.73"><defs><style>.cls-1{fill:#fff;}</style></defs><g id="Layer_2" data-name="Layer 2"><g id="レイヤー_1" data-name="レイヤー 1"><path class="cls-1" d="M70.3.18C72.91.09,76.5.09,79,.18a5.47,5.47,0,0,1,5.38,5.39c.18,31.62,0,55.61,0,75.33a11.79,11.79,0,0,0,2.29,6.35c9.44,11.58,33.21,40.13,33.21,40.13,1.26,1.52.32,4.15-1.66,4.15,0,0-9.15.07-14.78,0a12.37,12.37,0,0,1-8.82-4.15C75.86,104.85,75,103.85,68.35,95.63a17.59,17.59,0,0,1-3.43-9.53s-.18-41.31,0-80.53A5.44,5.44,0,0,1,70.3.18Z"/><path class="cls-1" d="M696.21.18c2.6-.09,6.2-.09,8.68,0a5.47,5.47,0,0,1,5.38,5.39c.18,31.62,0,55.61,0,75.33a11.79,11.79,0,0,0,2.29,6.35c9.44,11.58,33.21,40.13,33.21,40.13,1.26,1.52.32,4.15-1.66,4.15,0,0-9.15.07-14.79,0a12.37,12.37,0,0,1-8.81-4.15c-18.75-22.53-19.64-23.53-26.26-31.75a17.67,17.67,0,0,1-3.43-9.53s-.17-41.31,0-80.53A5.46,5.46,0,0,1,696.21.18Z"/><path class="cls-1" d="M348,4.66C345.5,1.94,341.85.18,338.88.18H324.09c-2,0-2.92,2.63-1.66,4.16L352,40.07a4.49,4.49,0,0,1,0,5.53L320.63,83.54a6.83,6.83,0,0,0,0,8.29c9.5,11.93,21.52,26.34,29.4,35.55a12,12,0,0,0,8.81,4.15h14.34a2.51,2.51,0,0,0,2.1-4.15L344.72,90.45a4.52,4.52,0,0,1,0-5.53l31-37.33a7.22,7.22,0,0,0,0-9.43Z"/><path class="cls-1" d="M289.73.18H275.44a5.17,5.17,0,0,0-5.38,5.39v120.5c0,3.77,2.41,5.38,5.38,5.38h8.75c3,0,5.38-1.67,5.38-5.38v-17a11.44,11.44,0,0,1,2.68-7.66l39-48.27c1.87-2.31,2.41-5.22,0-8.36-8.51-11.08-24.19-30.08-32.78-40.42A12.93,12.93,0,0,0,289.73.18ZM291.83,27l15.92,19.63c1.62,2.07,1.46,3.59,0,5.58L291.83,71.83c-1,1.17-2.26.86-2.26-.8V27.79C289.57,26.21,290.92,25.75,291.83,27Z"/><path class="cls-1" d="M722.61,5.29h-4a.26.26,0,1,1,0-.52h8.63a.26.26,0,1,1,0,.52h-4V14.2a.31.31,0,0,1-.34.3.31.31,0,0,1-.34-.3Z"/><path class="cls-1" d="M738.72,14.21v-6c0-.34,0-2.64,0-2.64s0-.17-.08-.17-.12.07-.15.15l-1.23,2.61-2.48,5.68c-.18.42-.4.63-.6.63s-.43-.21-.62-.63L731,8l-1.11-2.41c0-.09-.09-.17-.15-.17s-.07.06-.07.21v8.64h0a.3.3,0,0,1-.32.32.31.31,0,0,1-.32-.33V5.33a.69.69,0,0,1,.76-.66c.21,0,.41.07.46.19l2.89,6.58.89,2a.21.21,0,0,0,.18.13.2.2,0,0,0,.18-.13l.89-2,2.89-6.58c.05-.12.24-.19.46-.19s.76.17.76.53v9a.31.31,0,0,1-.32.32.3.3,0,0,1-.32-.31Z"/><path class="cls-1" d="M31,102.69c-7.31,6.57-19.07,17-27.58,24.87a2.3,2.3,0,0,0,1.63,4H22.67a17.07,17.07,0,0,0,9.38-3.6s18.68-16.68,26.09-23.53a5,5,0,0,0,.13-7.35s-20-19.38-29.51-28.64a4.08,4.08,0,0,1,0-5.73l29.51-28a4.9,4.9,0,0,0-.1-7.31S39.86,10.64,32.05,3.79A15.06,15.06,0,0,0,22.67.18C17.51,0,13.34-.1,5.44.18A2.44,2.44,0,0,0,3.75,4.46L30.92,29A3.3,3.3,0,0,1,31,33.84L1.62,61.79a5.13,5.13,0,0,0,0,7.45L31.08,97.8A3.13,3.13,0,0,1,31,102.69Z"/><path class="cls-1" d="M174,5.57A5.38,5.38,0,0,0,168.62.18h-8.69a5.38,5.38,0,0,0-5.38,5.39v97.72a13.29,13.29,0,0,1-2.3,6.34,36.27,36.27,0,0,1-4,4.72,3.13,3.13,0,0,1-4.51,0,35.32,35.32,0,0,1-4-4.72,13.2,13.2,0,0,1-2.31-6.34V5.57A5.38,5.38,0,0,0,132.12.18h-8.69a5.38,5.38,0,0,0-5.38,5.39s-.22,70,0,103a18.68,18.68,0,0,0,3.46,9.5,109.19,109.19,0,0,0,7.82,9.34,14.43,14.43,0,0,0,8.84,4.12c3.28.13,5.66.19,7.86.2s4.57-.07,7.85-.2a14.43,14.43,0,0,0,8.84-4.12,109.19,109.19,0,0,0,7.82-9.34,18.68,18.68,0,0,0,3.46-9.5C174.22,75.59,174,5.57,174,5.57Z"/><path class="cls-1" d="M208.82,102.69c7.31,6.57,19.07,17,27.58,24.87a2.3,2.3,0,0,1-1.63,4H217.13a17,17,0,0,1-9.37-3.6s-18.69-16.68-26.1-23.53a5,5,0,0,1-.12-7.35s20-19.38,29.5-28.64a4.07,4.07,0,0,0,0-5.73l-29.51-28a4.9,4.9,0,0,1,.1-7.31s18.34-16.74,26.16-23.59A15,15,0,0,1,217.13.18c5.17-.2,9.33-.28,17.24,0a2.44,2.44,0,0,1,1.69,4.28s-20.73,18-27.18,24.5a3.55,3.55,0,0,0-.06,4.88C216,41,238.18,61.79,238.18,61.79a5.12,5.12,0,0,1,0,7.45s-22,21-29.49,28.56A3.14,3.14,0,0,0,208.82,102.69Z"/><path class="cls-1" d="M435.79,13c-1.93-2.57-4.58-5.69-7.32-8.73A12.2,12.2,0,0,0,419.63.18c-6.16-.1-10.07-.1-16.81,0A12.34,12.34,0,0,0,394,4.31,112.35,112.35,0,0,0,386.66,13a16.43,16.43,0,0,0-3.46,9.51v86.62a16.4,16.4,0,0,0,3.46,9.5c1.93,2.58,5.22,6.42,7.32,8.74a12.22,12.22,0,0,0,8.84,4.12c6.59.11,11.61.11,16.81,0a12.27,12.27,0,0,0,8.84-4.12c2.11-2.32,5.39-6.16,7.32-8.74a16.4,16.4,0,0,0,3.46-9.5V22.55A16.43,16.43,0,0,0,435.79,13Zm-16,90a11.68,11.68,0,0,1-2.3,7.19,25.93,25.93,0,0,1-3.3,4,4.53,4.53,0,0,1-5.94,0,24.83,24.83,0,0,1-3.3-4,11.62,11.62,0,0,1-2.31-7.19V28.68A11.62,11.62,0,0,1,405,21.49a24.73,24.73,0,0,1,3.3-4,4.5,4.5,0,0,1,5.94,0,25.82,25.82,0,0,1,3.3,4,11.68,11.68,0,0,1,2.3,7.19Z"/><path class="cls-1" d="M555.17,13c-1.94-2.57-4.58-5.69-7.32-8.73A12.2,12.2,0,0,0,539,.18c-6.17-.1-10.07-.1-16.81,0a12.36,12.36,0,0,0-8.85,4.13C510.45,7.44,508,10.47,506,13a16.48,16.48,0,0,0-3.45,9.51v86.62a16.45,16.45,0,0,0,3.45,9.5c1.94,2.58,5.22,6.42,7.32,8.74a12.22,12.22,0,0,0,8.85,4.12c6.58.11,11.61.11,16.81,0a12.29,12.29,0,0,0,8.84-4.12c2.1-2.32,5.38-6.16,7.32-8.74a16.47,16.47,0,0,0,3.46-9.5V22.55A16.5,16.5,0,0,0,555.17,13Zm-16,90a11.68,11.68,0,0,1-2.31,7.19,25.37,25.37,0,0,1-3.3,4,4.53,4.53,0,0,1-5.94,0,25.93,25.93,0,0,1-3.3-4A11.68,11.68,0,0,1,522,103V28.68a11.68,11.68,0,0,1,2.31-7.19,25.82,25.82,0,0,1,3.3-4,4.5,4.5,0,0,1,5.94,0,25.26,25.26,0,0,1,3.3,4,11.68,11.68,0,0,1,2.31,7.19Z"/><path class="cls-1" d="M680.93,13c-1.93-2.57-4.58-5.69-7.32-8.73A12.2,12.2,0,0,0,664.77.18c-6.16-.1-10.07-.1-16.81,0a12.34,12.34,0,0,0-8.84,4.13A112.35,112.35,0,0,0,631.8,13a16.43,16.43,0,0,0-3.46,9.51v86.62a16.4,16.4,0,0,0,3.46,9.5c1.93,2.58,5.21,6.42,7.32,8.74a12.2,12.2,0,0,0,8.84,4.12c6.58.11,11.61.11,16.81,0a12.29,12.29,0,0,0,8.84-4.12c2.1-2.32,5.39-6.16,7.32-8.74a16.47,16.47,0,0,0,3.46-9.5V22.55A16.5,16.5,0,0,0,680.93,13Zm-16,90a11.62,11.62,0,0,1-2.31,7.19,25.37,25.37,0,0,1-3.3,4,4.53,4.53,0,0,1-5.94,0,25.93,25.93,0,0,1-3.3-4,11.68,11.68,0,0,1-2.3-7.19V28.68a11.68,11.68,0,0,1,2.3-7.19,25.82,25.82,0,0,1,3.3-4,4.5,4.5,0,0,1,5.94,0,25.26,25.26,0,0,1,3.3,4,11.62,11.62,0,0,1,2.31,7.19Z"/><path class="cls-1" d="M600.2,110.22a25.4,25.4,0,0,1-3.31,4,4.52,4.52,0,0,1-5.93,0,25.4,25.4,0,0,1-3.31-4,11.68,11.68,0,0,1-2.3-7.19V28.68a11.68,11.68,0,0,1,2.3-7.19,25.29,25.29,0,0,1,3.31-4,4.48,4.48,0,0,1,5.93,0,25.29,25.29,0,0,1,3.31,4,11.68,11.68,0,0,1,2.3,7.19v3.11a2.88,2.88,0,0,0,3,3H619a2.82,2.82,0,0,0,3-3V22.55A16.43,16.43,0,0,0,618.49,13c-1.93-2.57-5.22-6.41-7.32-8.73A12.22,12.22,0,0,0,602.33.18c-6.45-.09-9.68-.07-16.81,0a12.32,12.32,0,0,0-8.84,4.13c-2.17,2.32-5.39,6.16-7.32,8.73a16.43,16.43,0,0,0-3.46,9.51v86.62a16.4,16.4,0,0,0,3.46,9.5c1.93,2.58,5.21,6.42,7.32,8.74a12.29,12.29,0,0,0,8.84,4.12c6.69.14,11.1.14,16.81,0a12.33,12.33,0,0,0,8.84-4.12c2.1-2.32,5.39-6.16,7.32-8.74a16.4,16.4,0,0,0,3.46-9.5V99.92a3,3,0,0,0-3-3H605.5a2.91,2.91,0,0,0-3,3V103A11.68,11.68,0,0,1,600.2,110.22Z"/><path class="cls-1" d="M493.49,1.51H448.21a5.38,5.38,0,0,0-5.39,5.38v8.68A5.39,5.39,0,0,0,448.21,21h9.33c3.63,0,3.59,3,3.59,4.95v99.68c0,3.5,2.4,5.94,5.38,5.94h8.68c3,0,5.38-2.44,5.38-5.94V25.91c0-2,0-4.95,3.59-4.95h9.33a5.38,5.38,0,0,0,5.38-5.39V6.89A5.38,5.38,0,0,0,493.49,1.51Z"/></g></g></svg>